<?xml version="1.0" standalone="no"?><!DOCTYPE svg PUBLIC "-//W3C//DTD SVG 1.1//EN" "http://www.w3.org/Graphics/SVG/1.1/DTD/svg11.dtd"><svg t="1603093149128" class="icon" viewBox="0 0 1395 1024" version="1.1" xmlns="http://www.w3.org/2000/svg" p-id="5766" xmlns:xlink="http://www.w3.org/1999/xlink" width="200" height="200"><defs><style type="text/css"></style></defs><path d="M1059.867862 343.868764c-4.370002-5.959094-9.799399-11.38849-15.758493-15.758492L605.387643 15.059213c-26.087588-19.466373-61.312454-20.128495-87.267617-1.589092L83.635878 310.232991c-17.347584 11.918188-28.736074 30.325166-32.57638 50.983357-3.840305 20.658192 0.529697 41.713656 12.977582 59.061241 4.899699 7.548185 11.918188 14.036976 19.466373 19.466373l478.978715 321.658639 346.024712-232.669505v192.54494c-5.959094 14.699098-18.406979 26.087588-34.165471 31.516985l-4.370002 1.589092-275.972254 200.755248c-9.799399 7.018488-21.717586 10.858793-33.106076 10.858793-11.38849 0-22.247283-3.310608-32.046682-9.799399L200.169267 732.13683c-15.758492-11.38849-24.89577-29.265772-24.895769-48.334872v-14.699098c0-4.899699 2.118789-9.269701 7.018488-11.918188 4.370002-2.648486 8.740004-2.118789 12.447884 0l350.924411 239.158297c12.977582 9.269701 30.854863 5.429397 40.124565-7.548185s5.429397-30.854863-7.548185-40.124565L226.786553 609.644347c-22.247283-14.699098-50.453661-15.758492-73.230642-2.648487C130.249233 619.841018 116.079833 644.339515 116.60953 670.824376v12.977582c0 38.005776 18.406979 73.760338 49.394266 95.477925l330.266219 224.591622c19.466373 12.977582 41.713656 20.128495 64.490637 20.128495 23.836375 0 46.613356-7.548185 66.74185-20.658192l269.615887-196.385246c32.046682-12.447885 56.942452-38.535473 67.271548-70.44973l1.589092-4.370002V491.919139l76.541248-50.453661 0.529698-0.529697c15.228795-10.329096 25.557891-26.087588 28.736074-44.494567 3.310608-18.406979-1.059394-37.476079-11.918187-52.57245z m-45.024264 42.243354c-0.529697 1.589092-1.589092 4.370002-4.370003 6.488791l-83.030039 54.823663c-2.118789 0.529697-4.370002 1.589092-6.488791 3.310607L562.482168 691.482568 116.60953 392.600909c-2.118789-1.589092-3.840305-3.310608-5.429397-5.429397-3.310608-4.370002-4.370002-10.329096-3.310607-15.758492 1.059394-5.429397 4.370002-10.329096 8.740004-13.507279L550.563981 60.613174c6.488791-4.370002 14.036976-3.840305 20.128494 0.529697l439.913545 314.110454 2.118789 2.118789c2.78091 3.840305 2.78091 7.150913 2.118789 8.740004z" p-id="5767" fill="#ffffff"></path><path d="M739.401041 329.699364L531.627305 181.64899c-9.799399-7.018488-23.306678-0.529697-23.306678 11.38849v296.76287c0 11.918188 13.507279 18.936676 23.306678 11.918187l207.773736-148.050374c8.077883-6.091518 8.077883-18.009706 0-23.968799z" p-id="5768" fill="#ffffff"></path></svg>
